<svg width="1172" height="712" viewBox="0 0 1172 712" fill="none" xmlns="http://www.w3.org/2000/svg">
<path d="M586 0L0.221436 341.764V1025.49L381.75 1248.13V1065.59L156.585 934.22V433.033L586 182.439L1015.41 433.033V934.22L790.153 1065.69V1248.13L1171.78 1025.49V341.764L586 0Z" fill="white" fill-opacity="0.03"/>
<path fill-rule="evenodd" clip-rule="evenodd" d="M1015.24 433.074V433.033L585.822 182.439L156.408 433.033V433.052L0.222549 341.659L585.822 0L1171.6 341.764V342.294L1015.24 433.074Z" fill="white" fill-opacity="0.03"/>
<path d="M873.71 536.853V723.243L588.345 543.076L293.404 721.761V537.445L590.007 357.772L873.71 536.853Z" fill="white" fill-opacity="0.03"/>
<path d="M582.483 671.481L748.326 776.184V962.475L580.821 856.686L418.789 954.869V770.652L582.483 671.481Z" fill="white" fill-opacity="0.03"/>
</svg>
