<svg width="37" height="37" viewBox="0 0 37 37" fill="none" xmlns="http://www.w3.org/2000/svg">
<path d="M22.819 17.9316H13.7032V19.9776H22.819V17.9316Z" fill="#ED6B1E"/>
<path d="M27.3659 10.4753H21.3417L22.7966 12.544L27.2068 13.8853C28.0251 14.1353 28.548 14.9082 28.5253 15.7039V22.2964C28.5253 23.1147 28.0024 23.8649 27.2068 24.115L22.8193 25.4562L21.3417 27.5249H27.3659C29.8892 27.5249 31.9124 25.4789 31.9124 22.9783V15.0219C31.9352 12.5213 29.8892 10.4753 27.3659 10.4753Z" fill="#ED6B1E"/>
<path d="M9.13406 10.4753H15.1582L13.7033 12.544L9.31592 13.8853C8.49754 14.1353 7.97469 14.9082 7.99742 15.7039V22.2964C7.99742 23.1147 8.52028 23.8649 9.31592 24.115L13.7033 25.4562L15.1582 27.5249H9.13406C6.63346 27.5249 4.58752 25.4789 4.58752 22.9783V15.0219C4.58752 12.5213 6.63346 10.4753 9.13406 10.4753Z" fill="#ED6B1E"/>
</svg>
