<svg width="36" height="36" viewBox="0 0 36 36" fill="none" xmlns="http://www.w3.org/2000/svg">
<g clip-path="url(#clip0_1208_85122)">
<path d="M22.005 12.7572L17.6925 17.7597L22.3845 23.2317H20.6325L16.4205 18.3162V23.3682H15.1575V12.6312H16.4205V17.0517L20.325 12.7572H22.005ZM32.8425 22.8837L27.789 19.8522V12.6312C27.7893 12.5207 27.7604 12.4121 27.7054 12.3162C27.6504 12.2204 27.5711 12.1407 27.4755 12.0852L20.211 7.84769V1.73819L32.841 9.20219L32.8425 22.8837ZM33.795 8.29769L19.9005 0.0896936C19.8046 0.0336065 19.6956 0.00375812 19.5845 0.00314869C19.4734 0.00253925 19.3641 0.0311902 19.2675 0.0862218C19.171 0.141253 19.0906 0.220726 19.0346 0.316652C18.9785 0.412578 18.9486 0.521578 18.948 0.632694V8.21219C18.948 8.43719 19.068 8.64419 19.26 8.75669L26.526 12.9957V20.2107C26.5257 20.3201 26.5539 20.4277 26.6078 20.5229C26.6617 20.6182 26.7395 20.6977 26.8335 20.7537L33.1485 24.5427C33.2443 24.6008 33.3538 24.6324 33.4658 24.6341C33.5778 24.6359 33.6883 24.6077 33.7858 24.5525C33.8833 24.4973 33.9643 24.4172 34.0205 24.3203C34.0767 24.2234 34.1061 24.1132 34.1055 24.0012V8.84219C34.1058 8.73223 34.0773 8.62411 34.0228 8.52859C33.9683 8.43306 33.8898 8.35346 33.795 8.29769ZM17.9655 34.6497L3.15753 26.7777V9.20219L15.789 1.73819V7.86419L9.13503 12.0987C9.04553 12.1558 8.97183 12.2345 8.92072 12.3276C8.86961 12.4206 8.84272 12.525 8.84253 12.6312V23.3682C8.8424 23.4836 8.87394 23.5967 8.93372 23.6954C8.9935 23.7941 9.07922 23.8744 9.18153 23.9277L17.679 28.3497C17.7687 28.3962 17.8683 28.4205 17.9693 28.4205C18.0703 28.4205 18.1699 28.3962 18.2595 28.3497L26.5035 24.0897L31.5765 27.1347L17.9655 34.6497ZM33.168 26.6157L26.853 22.8267C26.7606 22.7709 26.6553 22.7397 26.5473 22.7363C26.4394 22.7329 26.3323 22.7573 26.2365 22.8072L17.9715 27.0777L10.1055 22.9842V12.9792L16.7595 8.74319C16.849 8.68608 16.9227 8.60738 16.9738 8.51433C17.025 8.42128 17.0518 8.31686 17.052 8.21069V0.629694C17.0519 0.518397 17.0223 0.409116 16.9664 0.31292C16.9104 0.216724 16.83 0.137029 16.7333 0.0819092C16.6366 0.0267891 16.5271 -0.00179875 16.4158 -0.000958563C16.3045 -0.000118373 16.1954 0.03012 16.0995 0.0866936L2.20503 8.29769C2.11036 8.35357 2.03191 8.4332 1.97746 8.5287C1.923 8.6242 1.89442 8.73226 1.89453 8.84219V27.1572C1.89453 27.3912 2.02353 27.6057 2.22903 27.7152L17.6745 35.9262C17.7674 35.9753 17.871 36.0005 17.976 35.9994C18.0811 35.9984 18.1842 35.9711 18.276 35.9202L33.1485 27.7107C33.2455 27.6568 33.3265 27.5783 33.3836 27.4832C33.4406 27.3881 33.4717 27.2797 33.4737 27.1688C33.4757 27.0579 33.4485 26.9485 33.3948 26.8514C33.3412 26.7543 33.263 26.673 33.168 26.6157Z" fill="#FF9100"/>
</g>
<defs>
<clipPath id="clip0_1208_85122">
<rect width="36" height="36" fill="white"/>
</clipPath>
</defs>
</svg>
