<svg width="36" height="37" viewBox="0 0 36 37" fill="none" xmlns="http://www.w3.org/2000/svg">
<g clip-path="url(#clip0_5074_28500)">
<path d="M12.4947 16.8002C12.4947 17.1255 12.5294 17.3892 12.5901 17.5826C12.6595 17.7761 12.7463 17.987 12.8677 18.2156C12.9111 18.2859 12.9284 18.3563 12.9284 18.4178C12.9284 18.5057 12.8764 18.5936 12.7636 18.6815L12.2171 19.0508C12.1391 19.1035 12.061 19.1299 11.9916 19.1299C11.9049 19.1299 11.8181 19.0859 11.7314 19.0068C11.6099 18.875 11.5058 18.7343 11.4191 18.5936C11.3323 18.4442 11.2456 18.2772 11.1502 18.075C10.4736 18.8837 9.62347 19.2881 8.59989 19.2881C7.87123 19.2881 7.29004 19.0772 6.86499 18.6552C6.43995 18.2332 6.22308 17.6706 6.22308 16.9673C6.22308 16.22 6.48332 15.6134 7.01246 15.1563C7.5416 14.6991 8.24423 14.4706 9.1377 14.4706C9.43264 14.4706 9.73624 14.4969 10.0572 14.5409C10.3782 14.5848 10.7078 14.6552 11.0548 14.7343V14.0925C11.0548 13.4244 10.916 12.9585 10.6471 12.6859C10.3695 12.4134 9.90106 12.2815 9.23312 12.2815C8.92952 12.2815 8.61724 12.3167 8.29628 12.3958C7.97533 12.475 7.66304 12.5717 7.35944 12.6947C7.22065 12.7563 7.11655 12.7914 7.05583 12.809C6.99511 12.8266 6.95174 12.8354 6.91704 12.8354C6.7956 12.8354 6.73488 12.7475 6.73488 12.5629V12.1321C6.73488 11.9914 6.75223 11.8859 6.7956 11.8244C6.83897 11.7629 6.91704 11.7013 7.03848 11.6398C7.34209 11.4815 7.70642 11.3497 8.13147 11.2442C8.55651 11.1299 9.00759 11.0772 9.48468 11.0772C10.5169 11.0772 11.2716 11.3145 11.7574 11.7892C12.2345 12.264 12.4774 12.9848 12.4774 13.9519V16.8002H12.4947ZM8.97289 18.1365C9.25915 18.1365 9.55408 18.0837 9.86636 17.9783C10.1786 17.8728 10.4562 17.6794 10.6904 17.4156C10.8292 17.2486 10.9333 17.064 10.9854 16.853C11.0374 16.642 11.0721 16.387 11.0721 16.0881V15.7189C10.8205 15.6574 10.5516 15.6046 10.2741 15.5695C9.99648 15.5343 9.72757 15.5167 9.45866 15.5167C8.87747 15.5167 8.45242 15.631 8.16616 15.8684C7.87991 16.1057 7.74111 16.4398 7.74111 16.8794C7.74111 17.2925 7.84521 17.6002 8.06207 17.8112C8.27026 18.031 8.57386 18.1365 8.97289 18.1365ZM15.9385 19.0859C15.7823 19.0859 15.6783 19.0596 15.6089 18.998C15.5395 18.9453 15.4787 18.8222 15.4267 18.6552L13.3882 11.8596C13.3361 11.6837 13.3101 11.5695 13.3101 11.5079C13.3101 11.3673 13.3795 11.2881 13.5183 11.2881H14.3684C14.5332 11.2881 14.646 11.3145 14.7067 11.3761C14.7761 11.4288 14.8282 11.5519 14.8802 11.7189L16.3375 17.5387L17.6907 11.7189C17.7341 11.5431 17.7861 11.4288 17.8555 11.3761C17.9249 11.3233 18.0464 11.2881 18.2025 11.2881H18.8965C19.0613 11.2881 19.1741 11.3145 19.2435 11.3761C19.3128 11.4288 19.3736 11.5519 19.4083 11.7189L20.7788 17.609L22.2795 11.7189C22.3316 11.5431 22.3923 11.4288 22.453 11.3761C22.5224 11.3233 22.6352 11.2881 22.7913 11.2881H23.598C23.7368 11.2881 23.8149 11.3585 23.8149 11.5079C23.8149 11.5519 23.8062 11.5958 23.7975 11.6486C23.7889 11.7013 23.7715 11.7717 23.7368 11.8684L21.6463 18.664C21.5942 18.8398 21.5335 18.9541 21.4641 19.0068C21.3947 19.0596 21.282 19.0947 21.1345 19.0947H20.3885C20.2237 19.0947 20.1109 19.0684 20.0415 19.0068C19.9721 18.9453 19.9114 18.831 19.8767 18.6552L18.5321 12.9848L17.1963 18.6464C17.1529 18.8222 17.1009 18.9365 17.0315 18.998C16.9621 19.0596 16.8406 19.0859 16.6845 19.0859H15.9385ZM27.0852 19.3233C26.6341 19.3233 26.183 19.2706 25.7493 19.1651C25.3156 19.0596 24.9773 18.9453 24.7517 18.8134C24.6129 18.7343 24.5175 18.6464 24.4828 18.5673C24.4481 18.4881 24.4308 18.4002 24.4308 18.3211V17.8728C24.4308 17.6881 24.5002 17.6002 24.6303 17.6002C24.6823 17.6002 24.7344 17.609 24.7864 17.6266C24.8385 17.6442 24.9166 17.6794 25.0033 17.7145C25.2982 17.8464 25.6192 17.9519 25.9575 18.0222C26.3045 18.0925 26.6428 18.1277 26.9897 18.1277C27.5362 18.1277 27.9613 18.031 28.2562 17.8376C28.5512 17.6442 28.7073 17.3629 28.7073 17.0024C28.7073 16.7563 28.6292 16.5541 28.4731 16.387C28.3169 16.22 28.022 16.0706 27.597 15.9299L26.3392 15.5343C25.7059 15.3321 25.2375 15.0332 24.9513 14.6376C24.665 14.2508 24.5175 13.82 24.5175 13.3629C24.5175 12.9936 24.5956 12.6684 24.7517 12.387C24.9079 12.1057 25.1161 11.8596 25.3763 11.6662C25.6365 11.464 25.9315 11.3145 26.2784 11.209C26.6254 11.1035 26.9897 11.0596 27.3714 11.0596C27.5623 11.0596 27.7618 11.0684 27.9526 11.0947C28.1521 11.1211 28.3343 11.1563 28.5165 11.1914C28.6899 11.2354 28.8548 11.2794 29.0109 11.3321C29.167 11.3848 29.2885 11.4376 29.3752 11.4903C29.4967 11.5607 29.5834 11.631 29.6355 11.7101C29.6875 11.7804 29.7135 11.8772 29.7135 12.0002V12.4134C29.7135 12.598 29.6441 12.6947 29.514 12.6947C29.4446 12.6947 29.3319 12.6596 29.1844 12.5892C28.6899 12.3607 28.1348 12.2464 27.5189 12.2464C27.0244 12.2464 26.6341 12.3255 26.3652 12.4925C26.0963 12.6596 25.9575 12.9145 25.9575 13.275C25.9575 13.5211 26.0442 13.7321 26.2177 13.8991C26.3912 14.0662 26.7122 14.2332 27.1719 14.3826L28.4037 14.7783C29.0282 14.9804 29.4793 15.2618 29.7482 15.6222C30.0171 15.9826 30.1473 16.3958 30.1473 16.853C30.1473 17.231 30.0692 17.5739 29.9217 17.8728C29.7656 18.1717 29.5574 18.4354 29.2885 18.6464C29.0196 18.8662 28.6986 19.0244 28.3256 19.1387C27.9353 19.2618 27.5276 19.3233 27.0852 19.3233Z" fill="black"/>
<path fill-rule="evenodd" clip-rule="evenodd" d="M28.7247 23.5959C25.8708 25.7321 21.7244 26.8662 18.1592 26.8662C13.1627 26.8662 8.66062 24.9937 5.26023 21.8816C4.99132 21.6354 5.23421 21.3014 5.55516 21.4948C9.23313 23.6574 13.7699 24.9673 18.4628 24.9673C21.6289 24.9673 25.1074 24.2992 28.3083 22.9277C28.7854 22.708 29.1931 23.2442 28.7247 23.5959Z" fill="#FF9900"/>
<path fill-rule="evenodd" clip-rule="evenodd" d="M29.9131 22.2244C29.5487 21.7497 27.5016 21.9958 26.5734 22.1101C26.2958 22.1453 26.2524 21.8991 26.504 21.7145C28.1348 20.5541 30.8152 20.8881 31.1275 21.2749C31.4398 21.6705 31.0407 24.387 29.514 25.6881C29.2798 25.8903 29.0543 25.7848 29.1584 25.5211C29.5054 24.6508 30.2774 22.6903 29.9131 22.2244Z" fill="#FF9900"/>
</g>
<defs>
<clipPath id="clip0_5074_28500">
<rect width="26.3704" height="16" fill="white" transform="translate(5 10.9629)"/>
</clipPath>
</defs>
</svg>
