<svg width="37" height="37" viewBox="0 0 37 37" fill="none" xmlns="http://www.w3.org/2000/svg">
<path d="M14.8345 8.59888H21.344L14.5865 28.6206C14.5171 28.8264 14.3848 29.0051 14.2084 29.1318C14.0321 29.2584 13.8204 29.3266 13.6033 29.3266H8.53726C8.37273 29.3267 8.21057 29.2875 8.06418 29.2124C7.91779 29.1373 7.79139 29.0285 7.69542 28.8948C7.59946 28.7612 7.53669 28.6066 7.51232 28.4439C7.48795 28.2812 7.50266 28.115 7.55526 27.9591L13.851 9.30488C13.9204 9.09906 14.0527 8.9202 14.2291 8.7935C14.4056 8.6668 14.6173 8.59889 14.8345 8.59888Z" fill="url(#paint0_linear_5074_28488)"/>
<path d="M24.2937 22.0281H13.9712C13.8753 22.028 13.7815 22.0568 13.7021 22.1107C13.6228 22.1647 13.5615 22.2413 13.5263 22.3305C13.4911 22.4198 13.4836 22.5176 13.5047 22.6112C13.5259 22.7048 13.5748 22.7899 13.645 22.8553L20.278 29.0463C20.4711 29.2265 20.7254 29.3266 20.9895 29.3266H26.8345L24.2937 22.0281Z" fill="#0078D4"/>
<path d="M14.8345 8.59888C14.6149 8.59804 14.4008 8.66743 14.2235 8.79692C14.0461 8.92641 13.9148 9.10922 13.8487 9.31863L7.56299 27.9421C7.50686 28.0986 7.48924 28.2663 7.51162 28.431C7.534 28.5957 7.59571 28.7526 7.69155 28.8884C7.78739 29.0242 7.91453 29.1349 8.06221 29.2112C8.20989 29.2875 8.37377 29.3271 8.53999 29.3266H13.7367C13.9303 29.2921 14.1112 29.2067 14.261 29.0793C14.4107 28.952 14.524 28.7871 14.5892 28.6016L15.8427 24.9074L20.3202 29.0836C20.5079 29.2388 20.7433 29.3247 20.9867 29.3266H26.81L24.256 22.0281L16.8107 22.0299L21.3675 8.59888H14.8345Z" fill="url(#paint1_linear_5074_28488)"/>
<path d="M23.1488 9.30388C23.0794 9.09839 22.9474 8.91982 22.7712 8.79335C22.595 8.66687 22.3836 8.59885 22.1668 8.59888H14.912C15.1289 8.59889 15.3403 8.66692 15.5164 8.79339C15.6926 8.91986 15.8246 9.09841 15.894 9.30388L22.19 27.9589C22.2426 28.1148 22.2574 28.281 22.233 28.4438C22.2087 28.6065 22.1459 28.7611 22.05 28.8948C21.954 29.0285 21.8276 29.1374 21.6812 29.2125C21.5348 29.2877 21.3726 29.3269 21.208 29.3269H28.463C28.6275 29.3268 28.7897 29.2876 28.9361 29.2125C29.0825 29.1373 29.2088 29.0284 29.3048 28.8947C29.4007 28.761 29.4635 28.6064 29.4878 28.4437C29.5121 28.281 29.4974 28.1148 29.4448 27.9589L23.1488 9.30388Z" fill="url(#paint2_linear_5074_28488)"/>
<defs>
<linearGradient id="paint0_linear_5074_28488" x1="17.207" y1="10.1349" x2="10.4468" y2="30.1064" gradientUnits="userSpaceOnUse">
<stop stop-color="#114A8B"/>
<stop offset="1" stop-color="#0669BC"/>
</linearGradient>
<linearGradient id="paint1_linear_5074_28488" x1="19.3187" y1="19.4421" x2="17.755" y2="19.9709" gradientUnits="userSpaceOnUse">
<stop stop-opacity="0.3"/>
<stop offset="0.071" stop-opacity="0.2"/>
<stop offset="0.321" stop-opacity="0.1"/>
<stop offset="0.623" stop-opacity="0.05"/>
<stop offset="1" stop-opacity="0"/>
</linearGradient>
<linearGradient id="paint2_linear_5074_28488" x1="18.4588" y1="9.55238" x2="25.8795" y2="29.3226" gradientUnits="userSpaceOnUse">
<stop stop-color="#3CCBF4"/>
<stop offset="1" stop-color="#2892DF"/>
</linearGradient>
</defs>
</svg>
