<svg width="36" height="37" viewBox="0 0 36 37" fill="none" xmlns="http://www.w3.org/2000/svg">
<path d="M18.0016 30.9622V26.3093C22.9278 26.3093 26.7508 21.4244 24.8596 16.2402C24.1664 14.335 22.6278 12.7978 20.7093 12.1039C15.5251 10.226 10.6402 14.037 10.6402 18.9619H6C6 11.1086 13.5993 4.9865 21.8252 7.55827C25.4182 8.68751 28.2886 11.5446 29.4045 15.1376C31.9763 23.3702 25.8529 30.9622 18.0016 30.9622Z" fill="#0080FF"/>
<path fill-rule="evenodd" clip-rule="evenodd" d="M18.0149 21.6948V26.3344H13.3753V21.6948H18.0149ZM13.3753 26.3344V29.8794H9.82364V26.3278L13.3753 26.3344ZM9.82364 26.3344H6.84391V23.3547H9.82364V26.3344Z" fill="#0080FF"/>
</svg>
