<svg width="30" height="28" viewBox="0 0 30 28" fill="none" xmlns="http://www.w3.org/2000/svg">
<g id="Kubernetes_logo_without_workmark 1" clip-path="url(#clip0_5685_11942)">
<g id="layer1">
<g id="g3052">
<path id="path3055" d="M15.0118 0.401324C14.7624 0.413808 14.518 0.475257 14.293 0.582066L4.48393 5.23898C4.23005 5.35945 4.00698 5.53475 3.83127 5.75184C3.65557 5.96893 3.53176 6.22224 3.46903 6.49296L1.04908 16.9536C0.993199 17.1946 0.986945 17.4442 1.03069 17.6876C1.07443 17.9311 1.16728 18.1634 1.30374 18.3708C1.33683 18.4216 1.37242 18.4706 1.41038 18.5179L8.19979 26.9056C8.37553 27.1227 8.59863 27.2979 8.85252 27.4183C9.10641 27.5387 9.38456 27.6012 9.66632 27.6012L20.5542 27.5987C20.8359 27.5989 21.114 27.5366 21.3678 27.4164C21.6217 27.2962 21.8449 27.1212 22.0207 26.9044L28.8077 18.5154C28.9835 18.2983 29.1074 18.0449 29.1702 17.7741C29.2329 17.5032 29.2329 17.2219 29.1702 16.9511L26.7465 6.49047C26.6838 6.21975 26.5599 5.96644 26.3842 5.74934C26.2085 5.53225 25.9855 5.35696 25.7316 5.23649L15.9213 0.582066C15.6383 0.447709 15.3255 0.385561 15.0118 0.401324Z" fill="#326CE5"/>
<path id="path3059" d="M15.1094 3.96143C14.7851 3.96146 14.5222 4.25165 14.5223 4.6096C14.5223 4.6151 14.5234 4.62035 14.5235 4.62581C14.523 4.67445 14.5207 4.73304 14.5223 4.77539C14.53 4.98185 14.5753 5.13987 14.6025 5.33008C14.6519 5.7372 14.6933 6.07468 14.6678 6.38836C14.6429 6.50664 14.5553 6.61482 14.4771 6.69001L14.4633 6.93682C14.111 6.96582 13.7563 7.01894 13.402 7.09886C11.8775 7.44278 10.565 8.22303 9.56568 9.27649C9.50084 9.23254 9.3874 9.15168 9.35367 9.12692C9.24884 9.14098 9.1429 9.17312 9.00491 9.09326C8.74217 8.91753 8.50287 8.67496 8.21332 8.38276C8.08064 8.24298 7.98456 8.10988 7.82693 7.97515C7.79113 7.94455 7.7365 7.90317 7.69646 7.87169C7.57322 7.77406 7.42786 7.72315 7.28749 7.71837C7.107 7.71223 6.93326 7.78235 6.81956 7.92404C6.61742 8.17595 6.68214 8.56098 6.96382 8.78413C6.96668 8.78639 6.96973 8.78815 6.97261 8.79036C7.01131 8.82154 7.05871 8.86149 7.09429 8.88759C7.26157 9.0103 7.41437 9.07312 7.58104 9.17054C7.93219 9.38601 8.22329 9.56467 8.45418 9.78008C8.54435 9.87558 8.56011 10.0439 8.57211 10.1166L8.76028 10.2837C7.75292 11.79 7.28671 13.6506 7.56223 15.5464L7.31634 15.6174C7.25154 15.7006 7.15997 15.8314 7.06418 15.8705C6.76209 15.965 6.42211 15.9997 6.01165 16.0425C5.81894 16.0584 5.65267 16.0489 5.44837 16.0874C5.40341 16.0958 5.34076 16.112 5.29156 16.1235C5.28985 16.1239 5.28825 16.1244 5.28654 16.1248C5.28386 16.1254 5.28034 16.1267 5.27776 16.1272C4.93171 16.2103 4.70941 16.5264 4.78097 16.8378C4.85256 17.1492 5.19057 17.3386 5.5387 17.2641C5.54121 17.2635 5.54486 17.2634 5.54748 17.2628C5.55141 17.2619 5.55487 17.26 5.55877 17.2591C5.6073 17.2485 5.66812 17.2367 5.71057 17.2254C5.91142 17.172 6.05689 17.0935 6.23746 17.0247C6.62594 16.8863 6.94769 16.7706 7.26114 16.7256C7.39206 16.7154 7.52999 16.8058 7.59861 16.844L7.85453 16.8004C8.44345 18.6146 9.67765 20.0809 11.2405 21.0011L11.1338 21.2553C11.1723 21.3541 11.2146 21.4877 11.186 21.5852C11.0721 21.8788 10.8769 22.1887 10.6546 22.5343C10.547 22.6939 10.4368 22.8178 10.3397 23.0004C10.3165 23.0442 10.2869 23.1113 10.2644 23.1575C10.1135 23.4783 10.2242 23.8478 10.5141 23.9864C10.8058 24.1259 11.1678 23.9788 11.3245 23.6574C11.3247 23.6569 11.3255 23.6566 11.3258 23.6561C11.3259 23.6557 11.3256 23.6552 11.3258 23.6549C11.3481 23.6093 11.3797 23.5494 11.3985 23.5065C11.4817 23.3172 11.5094 23.1549 11.5679 22.9718C11.7232 22.5841 11.8086 22.1772 12.0224 21.9238C12.081 21.8543 12.1764 21.8276 12.2754 21.8013L12.4084 21.562C13.7708 22.0816 15.2959 22.221 16.8193 21.8774C17.1668 21.799 17.5023 21.6975 17.8266 21.5757C17.864 21.6416 17.9335 21.7682 17.9521 21.8001C18.0527 21.8326 18.1625 21.8494 18.2519 21.9808C18.4119 22.2524 18.5213 22.5737 18.6546 22.9618C18.7131 23.1449 18.742 23.3072 18.8252 23.4966C18.8442 23.5397 18.8756 23.6005 18.898 23.6461C19.0543 23.9686 19.4175 24.1163 19.7097 23.9765C19.9995 23.8377 20.1103 23.4683 19.9593 23.1475C19.9369 23.1013 19.906 23.0342 19.8828 22.9905C19.7857 22.8078 19.6755 22.6852 19.5679 22.5255C19.3456 22.18 19.1612 21.893 19.0473 21.5994C18.9996 21.4479 19.0553 21.3538 19.0924 21.2554C19.0702 21.23 19.0226 21.087 18.9946 21.0198C20.6187 20.0669 21.8167 18.5459 22.3793 16.7891C22.4552 16.801 22.5873 16.8242 22.6302 16.8328C22.7185 16.7749 22.7996 16.6994 22.9588 16.7119C23.2723 16.7569 23.594 16.8726 23.9825 17.011C24.1631 17.0798 24.3086 17.1595 24.5094 17.213C24.5519 17.2242 24.6127 17.2348 24.6612 17.2454C24.6651 17.2463 24.6686 17.2482 24.6725 17.2491C24.6751 17.2497 24.6788 17.2498 24.6813 17.2503C25.0294 17.3248 25.3675 17.1355 25.439 16.824C25.5105 16.5126 25.2883 16.1965 24.9422 16.1135C24.8919 16.1022 24.8205 16.0829 24.7716 16.0737C24.5673 16.0352 24.401 16.0447 24.2083 16.0288C23.7979 15.986 23.4579 15.9513 23.1558 15.8568C23.0326 15.8093 22.945 15.6637 22.9024 15.6037L22.6653 15.5352C22.7882 14.6515 22.7551 13.7318 22.5423 12.8116C22.3276 11.8828 21.9482 11.0333 21.4421 10.2849C21.503 10.23 21.6178 10.1289 21.6504 10.0992C21.6599 9.99451 21.6517 9.88477 21.7608 9.76886C21.9917 9.55344 22.2828 9.37481 22.6339 9.15933C22.8006 9.0619 22.9547 8.9991 23.1219 8.87637C23.1598 8.84862 23.2114 8.80467 23.2511 8.77291C23.5328 8.54969 23.5976 8.16468 23.3954 7.91283C23.1932 7.66097 22.8014 7.63725 22.5198 7.86047C22.4797 7.89202 22.4253 7.93317 22.3893 7.96393C22.2317 8.09867 22.1343 8.23176 22.0016 8.37154C21.7121 8.66376 21.4728 8.90754 21.2101 9.08329C21.0962 9.14915 20.9294 9.12636 20.8538 9.12193L20.6305 9.28024C19.3571 7.95354 17.6235 7.10533 15.7567 6.94056C15.7515 6.86283 15.7446 6.72232 15.7429 6.68004C15.6665 6.60738 15.5742 6.54534 15.551 6.38836C15.5254 6.07468 15.5681 5.7372 15.6174 5.33008C15.6447 5.13987 15.69 4.98185 15.6977 4.77539C15.6995 4.72846 15.6967 4.66035 15.6965 4.6096C15.6964 4.25165 15.4336 3.96139 15.1094 3.96143ZM14.3742 8.48622L14.1998 11.5464L14.1873 11.5526C14.1756 11.8264 13.9488 12.045 13.6704 12.045C13.5564 12.045 13.4511 12.0086 13.3656 11.9465L13.3606 11.949L10.8352 10.1702C11.6114 9.41192 12.6041 8.85152 13.7482 8.59341C13.9572 8.54627 14.1661 8.51128 14.3742 8.48622ZM15.8458 8.48622C17.1815 8.64945 18.4168 9.25042 19.3634 10.1715L16.8544 11.939L16.8456 11.9353C16.6229 12.0969 16.3091 12.0568 16.1356 11.8405C16.0645 11.752 16.0271 11.6478 16.0227 11.5426L16.0201 11.5414L15.8458 8.48622ZM9.91945 11.3133L12.2252 13.3625L12.2227 13.375C12.4309 13.5548 12.4616 13.8667 12.288 14.083C12.2169 14.1716 12.1217 14.231 12.0195 14.2587L12.017 14.2687L9.06137 15.1163C8.91094 13.7496 9.23514 12.421 9.91945 11.3133ZM20.283 11.3145C20.6256 11.8663 20.885 12.4825 21.0394 13.1506C21.192 13.8107 21.2303 14.4696 21.1674 15.1064L18.1967 14.2563L18.1942 14.2438C17.9282 14.1715 17.7647 13.9027 17.8266 13.633C17.852 13.5225 17.911 13.4291 17.991 13.36L17.9897 13.3538L20.283 11.3145ZM14.6364 13.5208H15.5811L16.1682 14.25L15.9574 15.16L15.1094 15.5651L14.2588 15.1587L14.0481 14.2488L14.6364 13.5208ZM17.6648 16.0163C17.705 16.0143 17.7449 16.0179 17.784 16.025L17.789 16.0188L20.8462 16.5324C20.3988 17.7814 19.5426 18.8634 18.3987 19.5875L17.2119 16.7393L17.2157 16.7343C17.1067 16.4826 17.2158 16.1874 17.4666 16.0674C17.5308 16.0367 17.5979 16.0197 17.6648 16.0163ZM12.5301 16.0288C12.7634 16.032 12.9727 16.1929 13.0269 16.4289C13.0523 16.5394 13.0399 16.6488 12.998 16.7455L13.0068 16.7567L11.8326 19.5763C10.7348 18.8763 9.86032 17.8283 9.39256 16.5423L12.4235 16.0313L12.4285 16.0375C12.4624 16.0313 12.4968 16.0283 12.5301 16.0288ZM15.0906 17.2641C15.1718 17.2611 15.2543 17.2777 15.3327 17.3152C15.4354 17.3643 15.5148 17.4417 15.5648 17.5345H15.576L17.0702 20.217C16.8763 20.2816 16.6769 20.3368 16.473 20.3828C15.3303 20.6406 14.1913 20.5625 13.1599 20.2133L14.6502 17.5358H14.6527C14.7422 17.3697 14.9118 17.2706 15.0906 17.2641Z" fill="white" stroke="white" stroke-width="0.25"/>
</g>
</g>
</g>
<defs>
<clipPath id="clip0_5685_11942">
<rect width="29.0182" height="28" fill="white" transform="translate(0.599609)"/>
</clipPath>
</defs>
</svg>