<svg xmlns="http://www.w3.org/2000/svg" width="51" height="57" viewBox="0 0 51 57" fill="none">
  <path fill-rule="evenodd" clip-rule="evenodd" d="M31.842 20.199L25.013 28.12L32.441 36.784H29.669L23 29V37H21V20H23V27L29.181 20.199H31.842ZM49 36.234L41 31.433V20C41 19.644 40.812 19.315 40.504 19.136L29 12.426V2.75202L49 14.571V36.234ZM50.509 13.139L28.509 0.139026C28.199 -0.0439742 27.818 -0.0459736 27.504 0.131026C27.193 0.309026 27 0.641026 27 1.00003V13C27 13.355 27.189 13.684 27.496 13.864L39 20.574V32C39 32.351 39.185 32.677 39.486 32.857L49.486 38.857C49.644 38.952 49.822 39 50 39C50.17 39 50.34 38.957 50.493 38.87C50.807 38.693 51 38.36 51 38V14C51 13.646 50.814 13.319 50.509 13.139ZM25.445 54.863L2 42.399V14.571L22 2.75202V12.451L11.463 19.156C11.175 19.34 11 19.658 11 20V37C11 37.373 11.208 37.715 11.538 37.887L24.991 44.887C25.28 45.037 25.624 45.038 25.912 44.888L38.964 38.144L46.996 42.964L25.445 54.863ZM49.515 42.142L39.515 36.142C39.217 35.964 38.849 35.952 38.541 36.112L25.455 42.873L13 36.393V20.549L23.537 13.844C23.825 13.66 24 13.342 24 13V1.00003C24 0.641026 23.808 0.309026 23.496 0.131026C23.184 -0.0459736 22.802 -0.0439742 22.491 0.139026L0.491 13.139C0.187 13.319 0 13.646 0 14V43C0 43.369 0.204 43.709 0.53 43.883L24.984 56.883C25.131 56.961 25.292 57 25.453 57C25.62 57 25.786 56.958 25.937 56.875L49.484 43.875C49.797 43.702 49.993 43.375 50.0001 43.018C50.006 42.66 49.821 42.326 49.515 42.142Z" fill="url(#paint0_linear_17535_4694)"/>
  <defs>
    <linearGradient id="paint0_linear_17535_4694" x1="50" y1="29.5" x2="1" y2="29" gradientUnits="userSpaceOnUse">
      <stop stop-color="#FF9900"/>
      <stop offset="1" stop-color="#C8511B"/>
    </linearGradient>
  </defs>
</svg>