<svg width="24" height="24" viewBox="0 0 24 24" fill="none" xmlns="http://www.w3.org/2000/svg">
<path d="M0 8C0 3.58172 3.58172 0 8 0H16C20.4183 0 24 3.58172 24 8V16C24 20.4183 20.4183 24 16 24H8C3.58172 24 0 20.4183 0 16V8Z" fill="#EB1000"/>
<path d="M12 17.25C14.8995 17.25 17.25 14.8995 17.25 12C17.25 9.1005 14.8995 6.75 12 6.75C9.1005 6.75 6.75 9.1005 6.75 12C6.75 14.8995 9.1005 17.25 12 17.25Z" stroke="#F6F6F9" stroke-linecap="round" stroke-linejoin="round"/>
<path d="M12 12L10.25 10.25M12 12L13.75 13.75M12 12L13.75 10.25M12 12L10.25 13.75" stroke="#F6F6F9" stroke-linecap="round" stroke-linejoin="round"/>
</svg>
