<svg width="37" height="37" viewBox="0 0 37 37" fill="none" xmlns="http://www.w3.org/2000/svg">
<path d="M22.0349 14.0211H22.8926L25.3371 11.6448L25.4572 10.6359C24.0568 9.43442 22.3645 8.59977 20.54 8.21082C18.7155 7.82188 16.8191 7.89149 15.03 8.41307C13.2409 8.93466 11.6181 9.891 10.3149 11.1918C9.01176 12.4925 8.07121 14.0948 7.58215 15.8471C7.85448 15.7386 8.15616 15.721 8.43988 15.7971L13.3289 15.0133C13.3289 15.0133 13.5777 14.6131 13.7063 14.6381C14.7539 13.5197 16.2016 12.8329 17.7531 12.7182C19.3046 12.6035 20.8425 13.0696 22.052 14.0211H22.0349Z" fill="#EA4335"/>
<path d="M28.8185 15.8469C28.2566 13.8355 27.1029 12.0272 25.4991 10.644L22.0682 13.9792C22.7832 14.5471 23.3562 15.2655 23.744 16.0801C24.1318 16.8947 24.3243 17.7843 24.3068 18.6817V19.2737C24.7078 19.2737 25.1049 19.3505 25.4754 19.4997C25.8458 19.6489 26.1824 19.8675 26.466 20.1431C26.7495 20.4188 26.9744 20.746 27.1279 21.1061C27.2814 21.4662 27.3603 21.8522 27.3603 22.242C27.3603 22.6318 27.2814 23.0178 27.1279 23.3779C26.9744 23.7381 26.7495 24.0653 26.466 24.3409C26.1824 24.6165 25.8458 24.8352 25.4754 24.9843C25.1049 25.1335 24.7078 25.2103 24.3068 25.2103H18.1998L17.5908 25.8106V29.3709L18.1998 29.9629H24.3068C26.0122 29.9758 27.6765 29.4548 29.0537 28.4769C30.4308 27.499 31.4476 26.1162 31.9536 24.533C32.4596 22.9499 32.4279 21.2504 31.8633 19.6861C31.2987 18.1218 30.2311 16.7757 28.8185 15.8469Z" fill="#4285F4"/>
<path d="M12.0841 29.93H18.1911V25.1775H12.0841C11.649 25.1774 11.219 25.0864 10.8232 24.9106L9.96548 25.1691L7.5038 27.5454L7.28937 28.3792C8.66982 29.3925 10.3543 29.9373 12.0841 29.93Z" fill="#34A853"/>
<path d="M12.0839 14.513C10.4292 14.5226 8.81885 15.0344 7.47786 15.9768C6.13687 16.9192 5.13217 18.2453 4.60408 19.7697C4.07599 21.2941 4.05089 22.9408 4.53227 24.4798C5.01366 26.0188 5.9775 27.3732 7.28917 28.3538L10.8316 24.9103C10.3814 24.7126 9.98731 24.4117 9.68309 24.0334C9.37886 23.655 9.1736 23.2106 9.0849 22.7382C8.99621 22.2658 9.02674 21.7796 9.17387 21.3212C9.321 20.8628 9.58034 20.4459 9.92963 20.1064C10.2789 19.7669 10.7078 19.5148 11.1793 19.3717C11.6509 19.2287 12.1511 19.199 12.637 19.2852C13.123 19.3715 13.5802 19.571 13.9694 19.8667C14.3585 20.1625 14.6681 20.5456 14.8715 20.9832L18.4139 17.5396C17.6704 16.5948 16.7121 15.8299 15.614 15.3048C14.5158 14.7798 13.3076 14.5087 12.0839 14.513Z" fill="#FBBC05"/>
</svg>
