<svg width="24" height="25" viewBox="0 0 24 25" fill="none" xmlns="http://www.w3.org/2000/svg">
<path d="M0 8.5C0 4.08172 3.58172 0.5 8 0.5H16C20.4183 0.5 24 4.08172 24 8.5V16.5C24 20.9183 20.4183 24.5 16 24.5H8C3.58172 24.5 0 20.9183 0 16.5V8.5Z" fill="#04a1f9"/>
<path d="M12 14.25V12.5M12 10.75V10.7442M17.25 12.5C17.25 15.3995 14.8995 17.75 12 17.75C9.1005 17.75 6.75 15.3995 6.75 12.5C6.75 9.6005 9.1005 7.25 12 7.25C14.8995 7.25 17.25 9.6005 17.25 12.5Z" stroke="#F6F6F9" stroke-linecap="round" stroke-linejoin="round"/>
</svg>
