<svg width="59" height="90" viewBox="0 0 59 90" fill="none" xmlns="http://www.w3.org/2000/svg">
<path d="M36.7025 17.3987V31.963L21.7875 43.1595V28.6026L36.7025 17.3987Z" fill="black"/>
<path d="M58.245 15.78V59.391H0.244995V59.3388L15.6821 47.747H46.5935L46.601 24.5336L58.245 15.7838V15.78Z" fill="url(#paint0_linear_16_1367)"/>
<path d="M0.244995 1.26788V44.7781L11.889 36.0283V12.9119H42.6811L58.1853 1.26788H0.244995Z" fill="black"/>
<path d="M20.3889 78.4496H17.4014L14.5371 81.3811V74.1903L12.0158 75.3726V88.7546H14.5371V84.2156L15.5553 83.2086L18.4532 88.7546H21.1945L17.4014 81.4146L20.3889 78.4496Z" fill="black"/>
<path d="M33.3719 76.7377C32.8908 76.029 32.2604 75.4621 31.4772 75.0332C30.694 74.6043 29.7392 74.3917 28.6091 74.3917C27.479 74.3917 26.5205 74.6043 25.7335 75.0332C24.9466 75.4621 24.3125 76.029 23.8314 76.7377C23.3503 77.4463 22.9997 78.2332 22.7759 79.0911C22.5559 79.9526 22.444 80.8179 22.444 81.6944C22.444 82.5708 22.5559 83.4361 22.7759 84.2977C22.996 85.1592 23.3503 85.9425 23.8314 86.6511C24.3125 87.3597 24.9466 87.9304 25.7335 88.3556C26.5205 88.7807 27.479 88.9971 28.6091 88.9971C29.7392 88.9971 30.694 88.7845 31.4772 88.3556C32.2604 87.9266 32.8908 87.3597 33.3719 86.6511C33.853 85.9425 34.2036 85.1555 34.4199 84.2977C34.64 83.4361 34.7481 82.5708 34.7481 81.6944C34.7481 80.8179 34.64 79.9526 34.4199 79.0911C34.1999 78.2295 33.853 77.4463 33.3719 76.7377ZM25.3345 80.0571C25.4501 79.4976 25.644 78.9755 25.9088 78.4943C26.1736 78.0132 26.528 77.6253 26.9681 77.3307C27.4082 77.036 27.9564 76.8868 28.6054 76.8868C29.2543 76.8868 29.7951 77.0286 30.2352 77.3157C30.3658 77.4015 30.4889 77.4985 30.6045 77.5992L25.562 84.1783C25.4687 83.9247 25.3904 83.6599 25.3345 83.3839C25.2151 82.8207 25.1592 82.2576 25.1592 81.6981C25.1592 81.1387 25.2188 80.6202 25.3345 80.0608V80.0571ZM31.8651 83.3242C31.7458 83.8874 31.5481 84.4058 31.2795 84.8832C31.011 85.3606 30.6567 85.7485 30.2166 86.0432C29.7765 86.3378 29.2394 86.487 28.6091 86.487C27.9788 86.487 27.4305 86.3453 26.9904 86.0618C26.8263 85.9574 26.6771 85.8343 26.5391 85.7038L31.604 79.0948C31.7159 79.382 31.8054 79.6804 31.8726 79.9974C31.9919 80.5643 32.0479 81.1312 32.0479 81.6981C32.0479 82.224 31.9882 82.7648 31.8651 83.328V83.3242Z" fill="black"/>
<path d="M46.7912 82.8915C46.5152 82.3843 46.1497 81.9591 45.6984 81.6159C45.2472 81.2728 44.7399 80.9819 44.1842 80.7432C43.6285 80.5045 43.0728 80.2919 42.5133 80.1017C42.0173 79.9264 41.5697 79.7549 41.1781 79.587C40.7865 79.4192 40.4732 79.229 40.2419 79.0164C40.0107 78.8038 39.8951 78.5464 39.8951 78.2443C39.8951 77.8005 40.0666 77.4574 40.4098 77.2149C40.7529 76.9725 41.234 76.8532 41.8532 76.8532C42.5133 76.8532 43.0355 76.9949 43.4196 77.2821C43.8075 77.5693 44.0947 77.9236 44.2812 78.345L46.6197 77.5693C46.4593 76.9651 46.1684 76.4243 45.7507 75.9469C45.3329 75.4695 44.8071 75.0928 44.173 74.813C43.539 74.5333 42.808 74.3953 41.9912 74.3953C40.9879 74.3953 40.1375 74.5669 39.4363 74.9137C38.7352 75.2606 38.1981 75.7231 37.8288 76.3012C37.4596 76.8793 37.2731 77.5133 37.2731 78.207C37.2731 78.9008 37.4074 79.4863 37.6722 79.9637C37.937 80.4411 38.2876 80.8364 38.7277 81.1497C39.1678 81.463 39.6452 81.7278 40.1711 81.9404C40.697 82.1568 41.2154 82.3507 41.7338 82.526C42.2709 82.7087 42.7557 82.8952 43.1809 83.0854C43.6061 83.2757 43.9492 83.5069 44.1991 83.7717C44.4527 84.0365 44.5758 84.3684 44.5758 84.7638C44.5758 85.3419 44.3632 85.782 43.9343 86.0841C43.5054 86.3862 42.9348 86.5391 42.2149 86.5391C41.5361 86.5391 40.9245 86.334 40.3837 85.92C39.8429 85.506 39.4214 84.9764 39.1193 84.3311L36.751 85.2076C37.0046 85.9797 37.3925 86.651 37.9072 87.2179C38.4219 87.7848 39.0373 88.2249 39.7571 88.5345C40.4769 88.844 41.2751 88.997 42.159 88.997C43.1138 88.997 43.9716 88.8291 44.7325 88.4972C45.4933 88.1652 46.0938 87.6804 46.5413 87.0501C46.9889 86.4198 47.2127 85.6514 47.2127 84.7489C47.2127 84.0179 47.0747 83.395 46.7987 82.8878L46.7912 82.8915Z" fill="black"/>
<defs>
<linearGradient id="paint0_linear_16_1367" x1="29.2431" y1="10.2713" x2="29.2431" y2="79.2403" gradientUnits="userSpaceOnUse">
<stop stop-color="#1DA7FD"/>
<stop offset="1" stop-color="#08F5DA"/>
</linearGradient>
</defs>
</svg>
