<svg width="37" height="37" viewBox="0 0 37 37" fill="none" xmlns="http://www.w3.org/2000/svg">
<path d="M32.1371 13.0858C31.8375 12.4818 31.4908 11.8989 31.0884 11.3491L26.7905 12.8757C27.2903 13.375 27.7103 13.9363 28.0537 14.5364L32.1371 13.0858ZM13.1382 17.7255L8.83899 19.2521C8.89394 19.9251 9.013 20.5897 9.17982 21.241L13.2639 19.7897C13.1311 19.1155 13.084 18.4208 13.1382 17.7255Z" fill="#C22133"/>
<path d="M22.6788 11.8972C23.5731 12.3045 24.3476 12.86 25.0012 13.5112L29.2991 11.9846C28.1085 10.3539 26.4868 8.99141 24.5001 8.08668C18.3554 5.29012 11.0246 7.89386 8.16 13.8905C7.23238 15.8309 6.88763 17.8919 7.04986 19.8878L11.3485 18.3612C11.4198 17.452 11.6468 16.5408 12.0635 15.6674C13.9253 11.7714 18.687 10.0807 22.6788 11.8972Z" fill="#DB212E"/>
<path d="M27.2643 19.5637C27.1956 20.4723 26.9608 21.3834 26.5428 22.2575C24.6816 26.1541 19.9192 27.8448 15.9281 26.0284C15.0325 25.6204 14.2521 25.0694 13.6012 24.4168L9.31172 25.9402C10.4997 27.5709 12.1195 28.9341 14.1075 29.8395C20.2522 32.6354 27.5816 30.0317 30.4469 24.0344C31.3752 22.0953 31.7173 20.0343 31.5538 18.0403L27.2643 19.5637Z" fill="#DB212E"/>
<path d="M28.3203 14.4417L24.2363 15.8923C24.9951 17.2191 25.3536 18.7463 25.2359 20.2825L29.5253 18.7597C29.4023 17.2574 28.9922 15.7908 28.3203 14.4417ZM9.44716 21.1452L5.36313 22.5971C5.73797 24.0503 6.38888 25.4314 7.2838 26.6604L11.5726 25.1364C10.4716 24.0331 9.73958 22.6367 9.44716 21.1452Z" fill="#EB2126"/>
<path d="M31.5147 11.9806C31.3792 11.7661 31.2386 11.5547 31.0888 11.3491L26.7908 12.8757C26.9799 13.0647 27.1539 13.2652 27.3201 13.4708L31.5147 11.9806ZM13.1219 18.5679C13.1115 18.2882 13.116 18.0073 13.1382 17.7257L8.83899 19.2523C8.86123 19.5211 8.8959 19.788 8.93712 20.0543L13.1219 18.5679Z" fill="#AD213B"/>
<path d="M31.5531 18.0403L27.2637 19.5637C27.2185 20.1664 27.0982 20.7704 26.9013 21.3642L31.5701 19.7029C31.6035 19.1461 31.5982 18.5907 31.5531 18.0403ZM9.31172 25.9409C9.64208 26.3948 10.0078 26.8277 10.4049 27.2364L15.0744 25.5744C14.5288 25.2411 14.0355 24.8523 13.6005 24.4168L9.31172 25.9409Z" fill="#BA2133"/>
</svg>
