<svg width="24" height="24" viewBox="0 0 24 24" fill="none" xmlns="http://www.w3.org/2000/svg">
<g clip-path="url(#clip0_2036_25090)">
<path d="M14.67 8.505L11.795 11.84L14.923 15.488H13.755L10.947 12.211V15.579H10.105V8.421H10.947V11.368L13.55 8.505H14.67ZM21.895 15.256L18.526 13.235V8.421C18.5261 8.34732 18.5069 8.27491 18.4702 8.21102C18.4335 8.14713 18.3807 8.09401 18.317 8.057L13.474 5.232V1.159L21.894 6.135L21.895 15.256ZM22.53 5.532L13.267 0.0599966C13.2031 0.0226052 13.1304 0.00270632 13.0563 0.00230003C12.9822 0.00189374 12.9094 0.0209944 12.845 0.0576821C12.7806 0.0943698 12.7271 0.147352 12.6897 0.211302C12.6523 0.275253 12.6324 0.347919 12.632 0.421997V5.475C12.632 5.625 12.712 5.763 12.84 5.838L17.684 8.664V13.474C17.6838 13.5469 17.7026 13.6187 17.7385 13.6822C17.7745 13.7456 17.8263 13.7987 17.889 13.836L22.099 16.362C22.1628 16.4008 22.2359 16.4218 22.3105 16.423C22.3852 16.4241 22.4588 16.4053 22.5238 16.3685C22.5888 16.3318 22.6429 16.2783 22.6803 16.2137C22.7178 16.1491 22.7374 16.0757 22.737 16.001V5.895C22.7372 5.82169 22.7182 5.74961 22.6818 5.68593C22.6455 5.62224 22.5932 5.56917 22.53 5.532ZM11.977 23.1L2.105 17.852V6.135L10.526 1.159V5.243L6.09 8.066C6.03033 8.10407 5.9812 8.15654 5.94713 8.21857C5.91305 8.28061 5.89513 8.35022 5.895 8.421V15.579C5.89491 15.6559 5.91594 15.7314 5.95579 15.7971C5.99564 15.8629 6.05279 15.9165 6.121 15.952L11.786 18.9C11.8458 18.931 11.9121 18.9472 11.9795 18.9472C12.0469 18.9472 12.1132 18.931 12.173 18.9L17.669 16.06L21.051 18.09L11.977 23.1ZM22.112 17.744L17.902 15.218C17.8404 15.1808 17.7702 15.16 17.6982 15.1578C17.6262 15.1555 17.5549 15.1717 17.491 15.205L11.981 18.052L6.737 15.323V8.653L11.173 5.829C11.2327 5.79092 11.2818 5.73846 11.3159 5.67642C11.35 5.61438 11.3679 5.54478 11.368 5.474V0.419997C11.3679 0.345799 11.3482 0.272945 11.3109 0.208814C11.2736 0.144683 11.22 0.0915538 11.1555 0.054807C11.091 0.0180603 11.018 -0.000998261 10.9438 -0.000438135C10.8696 0.000121992 10.7969 0.0202809 10.733 0.0579966L1.47 5.532C1.40689 5.56925 1.35459 5.62234 1.31828 5.686C1.28198 5.74967 1.26292 5.82171 1.263 5.895V18.105C1.263 18.261 1.349 18.404 1.486 18.477L11.783 23.951C11.8449 23.9837 11.914 24.0005 11.984 23.9998C12.054 23.9991 12.1228 23.981 12.184 23.947L22.099 18.474C22.1636 18.438 22.2176 18.3858 22.2557 18.3224C22.2937 18.259 22.3145 18.1867 22.3158 18.1127C22.3171 18.0388 22.299 17.9658 22.2632 17.9011C22.2274 17.8364 22.1753 17.7822 22.112 17.744Z" fill="#FF9100"/>
</g>
<defs>
<clipPath id="clip0_2036_25090">
<rect width="24" height="24" fill="white"/>
</clipPath>
</defs>
</svg>
